<?xml version="1.0" encoding="utf-8"?>
<!-- Generator: Adobe Illustrator 23.0.1, SVG Export Plug-In . SVG Version: 6.00 Build 0)  -->
<svg version="1.1" id="Layer_1" xmlns="http://www.w3.org/2000/svg" xmlns:xlink="http://www.w3.org/1999/xlink" x="0px" y="0px"
	 viewBox="0 0 142 44" style="enable-background:new 0 0 142 44;" xml:space="preserve">
<style type="text/css">
	.st0{fill:#2B38D1;}
	.st1{fill:#FFFFFF;}
</style>
<path class="st0" d="M120.4,24l-12.3-13.6c-0.1-0.2-0.3-0.3-0.5-0.4c-0.2-0.1-0.4-0.1-0.6-0.1h-8.3c-0.1,0-0.3,0-0.4,0.1
	c-0.1,0.1-0.2,0.2-0.2,0.3c-0.1,0.1-0.1,0.2-0.1,0.4c0,0.1,0.1,0.2,0.2,0.3L110,24L93.7,42.1c-0.1,0.1-0.1,0.2-0.2,0.3
	s0,0.3,0.1,0.4c0.1,0.1,0.1,0.2,0.2,0.3c0.1,0.1,0.2,0.1,0.4,0.1h8.4c0.4,0,0.9-0.2,1.2-0.5L120.4,24L120.4,24z"/>
<path class="st0" d="M141.2,0.6c-0.1-0.2-0.2-0.3-0.3-0.4C140.7,0,140.5,0,140.3,0H132c-0.2,0-0.5,0.1-0.7,0.2
	c-0.2,0.1-0.4,0.2-0.6,0.4l-13.2,14.8l5.5,6.1l17.9-20.1c0.1-0.1,0.2-0.2,0.3-0.3C141.2,0.9,141.2,0.7,141.2,0.6z"/>
<path class="st0" d="M123.1,26.4l-5.5,6.2l1.7,1.9l3.6,4.1c0.2,0.2,0.4,0.3,0.6,0.4c0.2,0.1,0.5,0.1,0.7,0.1h8.4
	c0.2,0,0.3,0,0.5-0.1c0.1-0.1,0.3-0.2,0.3-0.4c0.1-0.2,0.1-0.3,0.1-0.5c0-0.2-0.1-0.3-0.2-0.5L123.1,26.4z"/>
<path class="st0" d="M78.2,13.9v20.7c0,0.2-0.1,0.4-0.3,0.5c-0.1,0.1-0.3,0.2-0.5,0.3H73c-0.2,0-0.5-0.1-0.7-0.2
	c-0.1,0-0.2-0.1-0.3-0.2c-0.1-0.1-0.2-0.2-0.2-0.3l-7.9-11.1c-0.1-0.2-0.3-0.3-0.3-0.2c-0.1,0.1-0.2,0.2-0.2,0.3v10.8
	c0,0.2-0.1,0.4-0.3,0.5c-0.1,0.1-0.3,0.2-0.5,0.3h-4.5c-0.2,0-0.4-0.1-0.5-0.3c-0.1-0.1-0.2-0.3-0.3-0.5V13.9c0-0.2,0.1-0.4,0.3-0.5
	c0.1-0.1,0.3-0.2,0.5-0.3h4.5c0.2,0,0.5,0.1,0.7,0.2c0.1,0,0.2,0.1,0.3,0.2c0.1,0.1,0.2,0.2,0.2,0.3l7.9,11.1c0,0.1,0.1,0.1,0.2,0.2
	c0.1,0,0.2,0.1,0.2,0.1c0.2,0,0.2-0.2,0.2-0.3V13.9c0-0.2,0.1-0.4,0.3-0.5c0.1-0.1,0.3-0.2,0.5-0.3h4.5c0.1,0,0.2,0,0.3,0.1
	c0.1,0,0.2,0.1,0.2,0.2C78.2,13.5,78.2,13.6,78.2,13.9z"/>
<path class="st0" d="M86.7,19.4v1.2c0,0.1,0,0.2,0.1,0.3c0,0.1,0.1,0.2,0.2,0.2c0.1,0.1,0.1,0.1,0.2,0.2c0.1,0,0.2,0.1,0.3,0.1h8.2
	c0.2,0,0.4,0.1,0.5,0.2c0.1,0.1,0.2,0.3,0.3,0.5v4.2c0,0.1,0,0.2-0.1,0.3c0,0.1-0.1,0.2-0.2,0.2c-0.1,0.1-0.1,0.1-0.2,0.2
	c-0.1,0-0.2,0.1-0.3,0.1h-8.2c-0.2,0-0.4,0.1-0.5,0.2c-0.1,0.1-0.1,0.1-0.2,0.2c0,0.1-0.1,0.2-0.1,0.3v1.2c0,0.1,0,0.2,0.1,0.3
	c0,0.1,0.1,0.2,0.2,0.2c0.1,0.1,0.3,0.2,0.5,0.2h9.4c0.1,0,0.2,0,0.3,0.1c0.1,0,0.2,0.1,0.2,0.2c0.1,0.1,0.1,0.1,0.2,0.2
	c0,0.1,0.1,0.2,0.1,0.3v4.2c0,0.2-0.1,0.4-0.3,0.5c-0.1,0.1-0.3,0.2-0.5,0.2H81.5c-0.2,0-0.4-0.1-0.5-0.2c-0.1-0.1-0.2-0.3-0.3-0.5
	V13.9c0-0.1,0-0.2,0.1-0.3c0-0.1,0.1-0.2,0.2-0.2c0.1-0.1,0.1-0.1,0.2-0.2c0.1,0,0.2-0.1,0.3-0.1h15.4c0.1,0,0.2,0,0.3,0.1
	c0.1,0,0.2,0.1,0.2,0.2c0.1,0.1,0.1,0.1,0.2,0.2c0,0.1,0.1,0.2,0.1,0.3v4.1c0,0.1,0,0.2-0.1,0.3c0,0.1-0.1,0.2-0.2,0.2
	c-0.1,0.1-0.1,0.1-0.2,0.2c-0.1,0-0.2,0.1-0.3,0.1h-9.4c-0.1,0-0.2,0-0.3,0.1c-0.1,0-0.2,0.1-0.2,0.2C86.8,19.1,86.7,19.1,86.7,19.4
	z"/>
<path class="st1" d="M54.8,13.8c0-0.1,0-0.2,0-0.3c0-0.1-0.1-0.2-0.2-0.2c-0.1-0.1-0.1-0.1-0.2-0.2c-0.1,0-0.2-0.1-0.3,0h-4.5
	c-0.1,0-0.2,0-0.3,0c-0.1,0-0.2,0.1-0.2,0.2c-0.1,0.1-0.1,0.1-0.2,0.2c0,0.1,0,0.2,0,0.3v10.6v10.2c0,0.1,0,0.2,0,0.3
	c0,0.1,0.1,0.2,0.2,0.2c0.1,0.1,0.1,0.1,0.2,0.2c0.1,0,0.2,0.1,0.3,0.1h4.5c0.1,0,0.2,0,0.3-0.1c0.1,0,0.2-0.1,0.2-0.2
	c0.1-0.1,0.1-0.1,0.2-0.2c0-0.1,0.1-0.2,0-0.3V24.5L54.8,13.8z"/>
<path class="st1" d="M46.4,13.9v20.7c0,0.2-0.1,0.4-0.3,0.5s-0.3,0.2-0.5,0.3h-4.5c-0.2,0-0.4-0.1-0.5-0.3s-0.2-0.3-0.3-0.5v-9.8
	c0-0.2-0.1-0.3-0.3-0.3c-0.1,0-0.2,0-0.2,0.1c-0.1,0-0.1,0.1-0.2,0.2L34.5,33c-0.1,0.1-0.1,0.1-0.2,0.2c-0.1,0-0.2,0.1-0.3,0.1
	s-0.2,0-0.3-0.1c-0.1,0-0.2-0.1-0.2-0.2l-5.1-8.2c0-0.1-0.1-0.1-0.2-0.2c-0.1,0-0.2-0.1-0.2-0.1c-0.2,0-0.3,0.2-0.3,0.3v9.8
	c0,0.2-0.1,0.4-0.3,0.5c-0.1,0.1-0.3,0.2-0.5,0.3h-4.5c-0.2,0-0.4-0.1-0.5-0.3c-0.1-0.1-0.2-0.3-0.3-0.5V13.9c0-0.2,0.1-0.4,0.3-0.5
	c0.1-0.1,0.3-0.2,0.5-0.3h4.2c0.2,0,0.5,0.1,0.7,0.2c0.1,0,0.2,0.1,0.3,0.2c0.1,0.1,0.2,0.2,0.2,0.3l5.9,8.6c0,0.1,0.1,0.1,0.2,0.2
	c0.1,0,0.2,0.1,0.2,0.1c0.1,0,0.2,0,0.2-0.1c0.1,0,0.1-0.1,0.2-0.2l5.8-8.6c0.1-0.1,0.1-0.2,0.2-0.3c0.1-0.1,0.2-0.1,0.3-0.2
	c0.2-0.1,0.4-0.2,0.7-0.2h4.2c0.1,0,0.2,0,0.3,0.1s0.2,0.1,0.2,0.2C46.3,13.5,46.4,13.7,46.4,13.9z"/>
<path class="st1" d="M0,13.8c0-0.1,0-0.2,0.1-0.3s0.1-0.2,0.2-0.2c0.1-0.1,0.1-0.1,0.2-0.2c0.1,0,0.2-0.1,0.3,0h4.5
	c0.1,0,0.2,0,0.3,0c0.1,0,0.2,0.1,0.2,0.2c0.1,0.1,0.1,0.1,0.2,0.2s0.1,0.2,0.1,0.3v12.1c0,0.7,0.1,1.3,0.4,1.9
	c0.2,0.5,0.5,0.9,0.9,1.2c0.4,0.3,0.8,0.5,1.2,0.6c0.7,0.2,1.5,0.2,2.3,0c0.4-0.1,0.8-0.3,1.2-0.6c0.4-0.3,0.7-0.7,0.9-1.2
	c0.3-0.6,0.4-1.3,0.4-1.9V13.8c0-0.1,0-0.2,0.1-0.3s0.1-0.2,0.2-0.2c0.1-0.1,0.1-0.1,0.2-0.2c0.1,0,0.2-0.1,0.3,0h4.5
	c0.2,0,0.4,0.1,0.5,0.2c0.1,0.1,0.1,0.1,0.2,0.2c0,0.1,0.1,0.2,0.1,0.3v12.1c0,1.3-0.2,2.6-0.7,3.9c-0.4,1.1-1.1,2.1-1.9,3
	c-0.9,0.8-1.9,1.5-3,1.9c-1.2,0.5-2.6,0.7-3.9,0.7c-1.3,0-2.7-0.2-3.9-0.7c-1.1-0.4-2.2-1.1-3-1.9c-0.8-0.8-1.5-1.9-1.9-3
	C0.2,28.6,0,27.3,0,25.9V13.8z"/>
</svg>
