<svg width="142" height="44" viewBox="0 0 142 44" fill="none" xmlns="http://www.w3.org/2000/svg">
<path d="M120.432 23.9756L108.141 10.3382C107.993 10.1738 107.811 10.0436 107.607 9.9564C107.404 9.8692 107.184 9.82713 106.963 9.83307H98.7128C98.5862 9.8336 98.4624 9.87024 98.3559 9.93867C98.2495 10.0071 98.1648 10.1045 98.1117 10.2194C98.0587 10.3343 98.0395 10.462 98.0565 10.5874C98.0735 10.7128 98.126 10.8308 98.2077 10.9274L109.993 23.9756L93.746 42.0916C93.6643 42.1882 93.6119 42.3062 93.5949 42.4316C93.5779 42.557 93.597 42.6847 93.6501 42.7996C93.7031 42.9145 93.7878 43.0119 93.8943 43.0804C94.0008 43.1488 94.1246 43.1854 94.2511 43.186H102.669C103.113 43.1796 103.537 42.9981 103.848 42.6809L120.432 23.9925V23.9756Z" fill="#2B38D1"/>
<path d="M141.166 0.59846C141.112 0.419508 141 0.263634 140.847 0.155415C140.695 0.0471949 140.511 -0.0072135 140.324 0.000768074H131.99C131.741 0.00337252 131.496 0.0553151 131.268 0.153582C131.039 0.251848 130.833 0.394482 130.66 0.573205L117.443 15.3976L122.949 21.5177L140.88 1.38135C141.006 1.29989 141.103 1.17931 141.154 1.03799C141.206 0.896658 141.21 0.742316 141.166 0.59846Z" fill="#2B38D1"/>
<path d="M123.058 26.375L117.561 32.5792L119.245 34.507L122.831 38.6403C123.003 38.8169 123.208 38.9576 123.435 39.0544C123.662 39.1512 123.906 39.2022 124.152 39.2043H132.571C132.734 39.2087 132.894 39.1657 133.033 39.0806C133.172 38.9954 133.284 38.8717 133.354 38.7245C133.424 38.5677 133.45 38.3947 133.43 38.224C133.409 38.0534 133.342 37.8917 133.236 37.7564L123.058 26.375Z" fill="#2B38D1"/>
<path d="M78.2145 13.8738V34.5826C78.1873 34.7739 78.0987 34.9512 77.9621 35.0878C77.8255 35.2244 77.6482 35.313 77.4569 35.3402H72.9953C72.7643 35.3145 72.5377 35.2578 72.3218 35.1719C72.2137 35.1392 72.1132 35.0851 72.0265 35.0128C71.9397 34.9405 71.8683 34.8514 71.8167 34.751L63.9036 23.639C63.8194 23.4706 63.6511 23.3864 63.5669 23.4706C63.4827 23.5548 63.3985 23.639 63.3985 23.8073V34.5826C63.3713 34.7739 63.2827 34.9512 63.1461 35.0878C63.0094 35.2244 62.8322 35.313 62.6409 35.3402H58.095C57.9038 35.313 57.7265 35.2244 57.5899 35.0878C57.4532 34.9512 57.3646 34.7739 57.3374 34.5826V13.8738C57.3646 13.6826 57.4532 13.5053 57.5899 13.3687C57.7265 13.232 57.9038 13.1434 58.095 13.1162H62.6409C62.8719 13.142 63.0984 13.1986 63.3143 13.2846C63.4224 13.3173 63.5229 13.3714 63.6097 13.4437C63.6964 13.516 63.7678 13.605 63.8194 13.7055L71.7325 24.8175C71.772 24.8948 71.8323 24.9595 71.9068 25.0041C71.9812 25.0488 72.0667 25.0716 72.1534 25.07C72.3218 25.07 72.3218 24.9017 72.3218 24.7333V13.8738C72.349 13.6826 72.4376 13.5053 72.5742 13.3687C72.7109 13.232 72.8881 13.1434 73.0794 13.1162H77.5411C77.6379 13.1223 77.7325 13.1478 77.8193 13.1912C77.906 13.2346 77.9832 13.295 78.0462 13.3688C78.2145 13.5371 78.2145 13.6213 78.2145 13.8738Z" fill="#2B38D1"/>
<path d="M86.7167 19.3625V20.6084C86.7228 20.7052 86.7483 20.7998 86.7917 20.8866C86.835 20.9734 86.8954 21.0505 86.9692 21.1135C87.0326 21.1861 87.11 21.2452 87.1968 21.2871C87.2836 21.3291 87.378 21.3531 87.4743 21.3576H95.7241C95.9142 21.3844 96.0906 21.4718 96.227 21.6067C96.3635 21.7417 96.4529 21.9171 96.4818 22.1068V26.2654C96.4755 26.361 96.4499 26.4543 96.4065 26.5397C96.3631 26.6251 96.3028 26.7007 96.2292 26.7621C96.1662 26.8359 96.0891 26.8963 96.0023 26.9397C95.9156 26.983 95.821 27.0085 95.7241 27.0147H87.4743C87.2807 27.0275 87.0996 27.1151 86.9692 27.2588C86.8954 27.3218 86.835 27.3989 86.7917 27.4857C86.7483 27.5725 86.7228 27.6671 86.7167 27.7639V28.9256C86.7228 29.0224 86.7483 29.117 86.7917 29.2038C86.835 29.2905 86.8954 29.3677 86.9692 29.4307C87.0996 29.5744 87.2807 29.6619 87.4743 29.6748H96.9027C96.9995 29.6809 97.0941 29.7064 97.1809 29.7498C97.2676 29.7932 97.3448 29.8536 97.4078 29.9273C97.4813 29.9887 97.5416 30.0644 97.585 30.1498C97.6284 30.2351 97.6541 30.3284 97.6603 30.424V34.6331C97.6314 34.8229 97.5421 34.9983 97.4056 35.1332C97.2691 35.2682 97.0927 35.3556 96.9027 35.3823H81.4974C81.3073 35.3556 81.1309 35.2682 80.9945 35.1332C80.858 34.9983 80.7687 34.8229 80.7397 34.6331V13.8654C80.7459 13.7686 80.7714 13.674 80.8147 13.5872C80.8581 13.5005 80.9185 13.4233 80.9923 13.3603C81.0557 13.2877 81.1331 13.2287 81.2199 13.1867C81.3067 13.1448 81.4011 13.1208 81.4974 13.1162H96.9027C96.999 13.1208 97.0934 13.1448 97.1801 13.1867C97.2669 13.2287 97.3444 13.2877 97.4078 13.3603C97.4816 13.4233 97.5419 13.5005 97.5853 13.5872C97.6287 13.674 97.6542 13.7686 97.6603 13.8654V17.9398C97.6545 18.0355 97.6291 18.129 97.5857 18.2144C97.5422 18.2999 97.4817 18.3755 97.4078 18.4365C97.3448 18.5103 97.2676 18.5707 97.1809 18.6141C97.0941 18.6574 96.9995 18.6829 96.9027 18.6891H87.4743C87.3775 18.6952 87.2829 18.7207 87.1961 18.7641C87.1093 18.8074 87.0322 18.8678 86.9692 18.9416C86.8008 19.1015 86.7167 19.1015 86.7167 19.3625Z" fill="#2B38D1"/>
<path d="M54.812 13.8317C54.8155 13.7368 54.7994 13.6422 54.7647 13.5538C54.73 13.4654 54.6774 13.3851 54.6103 13.3179C54.5431 13.2507 54.4628 13.1982 54.3744 13.1635C54.286 13.1287 54.1913 13.1127 54.0964 13.1162H49.5927C49.4985 13.1138 49.4048 13.1308 49.3173 13.166C49.2299 13.2013 49.1506 13.254 49.0844 13.3211C49.0181 13.3881 48.9663 13.468 48.9321 13.5558C48.8979 13.6437 48.8821 13.7376 48.8856 13.8317V24.4639V34.6163C48.881 34.7119 48.8959 34.8075 48.9294 34.8972C48.9629 34.9869 49.0143 35.0689 49.0804 35.1382C49.1465 35.2075 49.226 35.2626 49.3141 35.3002C49.4021 35.3378 49.4969 35.3572 49.5927 35.3571H54.088C54.1832 35.3575 54.2776 35.3391 54.3657 35.303C54.4538 35.2669 54.534 35.2138 54.6015 35.1466C54.6675 35.0787 54.7194 34.9983 54.754 34.9101C54.7887 34.822 54.8055 34.7278 54.8036 34.6331V24.4639L54.812 13.8317Z" fill="#212529"/>
<path d="M46.3686 13.8738V34.5826C46.3414 34.7739 46.2528 34.9512 46.1162 35.0878C45.9796 35.2244 45.8023 35.313 45.611 35.3402H41.0652C40.8739 35.313 40.6966 35.2244 40.56 35.0878C40.4234 34.9512 40.3348 34.7739 40.3075 34.5826V24.8175C40.3075 24.6491 40.2234 24.4808 40.055 24.4808C39.9682 24.4792 39.8827 24.502 39.8083 24.5467C39.7339 24.5913 39.6735 24.656 39.6341 24.7333L34.499 32.9832C34.4402 33.0616 34.3639 33.1252 34.2762 33.169C34.1886 33.2129 34.0919 33.2357 33.9939 33.2357C33.8959 33.2357 33.7992 33.2129 33.7115 33.169C33.6239 33.1252 33.5476 33.0616 33.4888 32.9832L28.3537 24.7333C28.3143 24.656 28.2539 24.5913 28.1795 24.5467C28.105 24.502 28.0196 24.4792 27.9328 24.4808C27.7644 24.4808 27.6802 24.6491 27.6802 24.8175V34.5826C27.653 34.7739 27.5644 34.9512 27.4278 35.0878C27.2912 35.2244 27.1139 35.313 26.9226 35.3402H22.3768C22.1855 35.313 22.0082 35.2244 21.8716 35.0878C21.735 34.9512 21.6464 34.7739 21.6191 34.5826V13.8738C21.6464 13.6826 21.735 13.5053 21.8716 13.3687C22.0082 13.232 22.1855 13.1434 22.3768 13.1162H26.5859C26.8169 13.142 27.0434 13.1986 27.2593 13.2846C27.3675 13.3173 27.4679 13.3714 27.5547 13.4437C27.6414 13.516 27.7128 13.605 27.7644 13.7055L33.6572 22.292C33.6985 22.3676 33.7594 22.4306 33.8334 22.4744C33.9075 22.5183 33.992 22.5415 34.0781 22.5415C34.1642 22.5415 34.2487 22.5183 34.3227 22.4744C34.3968 22.4306 34.4576 22.3676 34.499 22.292L40.3328 13.7055C40.3844 13.605 40.4558 13.516 40.5425 13.4437C40.6293 13.3714 40.7298 13.3173 40.8379 13.2846C41.0507 13.1892 41.2787 13.1322 41.5113 13.1162H45.7204C45.8173 13.1223 45.9118 13.1478 45.9986 13.1912C46.0854 13.2346 46.1625 13.295 46.2255 13.3688C46.3355 13.5129 46.3866 13.6934 46.3686 13.8738Z" fill="#212529"/>
<path d="M0.00100161 13.8321C-0.00135936 13.7366 0.0161259 13.6416 0.0523517 13.5532C0.0885775 13.4648 0.142755 13.3849 0.211456 13.3186C0.277275 13.252 0.356086 13.1997 0.442982 13.165C0.529879 13.1302 0.623 13.1137 0.716549 13.1165H5.21186C5.30541 13.1137 5.39853 13.1302 5.48543 13.165C5.57233 13.1997 5.65114 13.252 5.71696 13.3186C5.78566 13.3849 5.83983 13.4648 5.87606 13.5532C5.91229 13.6416 5.92977 13.7366 5.92741 13.8321V25.9458C5.9048 26.6081 6.03139 27.2669 6.29781 27.8736C6.51546 28.3396 6.83475 28.751 7.23223 29.0774C7.58652 29.3538 7.98897 29.5622 8.4192 29.6919C9.16141 29.9275 9.95832 29.9275 10.7005 29.6919C11.1273 29.5664 11.525 29.3575 11.8707 29.0774C12.2604 28.7476 12.5736 28.3368 12.7882 27.8736C13.0618 27.2689 13.1915 26.6091 13.1671 25.9458V13.8321C13.1647 13.7366 13.1822 13.6416 13.2184 13.5532C13.2546 13.4648 13.3088 13.3849 13.3775 13.3186C13.4433 13.252 13.5221 13.1997 13.609 13.165C13.6959 13.1302 13.7891 13.1137 13.8826 13.1165H18.3779C18.5663 13.1147 18.7478 13.1873 18.883 13.3186C18.9501 13.3861 19.0033 13.4662 19.0394 13.5543C19.0755 13.6425 19.0939 13.7368 19.0935 13.8321V25.9458C19.109 27.2643 18.8807 28.5743 18.42 29.8098C17.9958 30.9235 17.3385 31.9338 16.4922 32.773C15.6266 33.6064 14.5975 34.2513 13.4701 34.6671C12.2213 35.1325 10.8966 35.3609 9.56407 35.3406C8.22872 35.3616 6.90117 35.1332 5.64961 34.6671C4.52219 34.2513 3.49317 33.6064 2.62748 32.773C1.78135 31.932 1.12166 30.9224 0.691293 29.8098C0.216944 28.5776 -0.0173622 27.2661 0.00100161 25.9458V13.8321Z" fill="#212529"/>
</svg>
